<svg width="211" height="59" viewBox="0 0 211 59" fill="none" xmlns="http://www.w3.org/2000/svg">
<path d="M1.50639 5.72727H4.89205L9.42614 16.794H9.60511L14.1392 5.72727H17.5249V21H14.87V10.5075H14.7283L10.5075 20.9553H8.52379L4.30291 10.4851H4.16122V21H1.50639V5.72727ZM20.5376 21V5.72727H30.4709V8.04652H23.3043V12.1928H29.9563V14.5121H23.3043V18.6808H30.5305V21H20.5376ZM42.921 5.72727H45.6877V15.7053C45.6877 16.799 45.4292 17.761 44.9121 18.5913C44.4 19.4215 43.6792 20.0703 42.7495 20.5376C41.8198 21 40.7335 21.2312 39.4906 21.2312C38.2427 21.2312 37.1539 21 36.2243 20.5376C35.2946 20.0703 34.5737 19.4215 34.0616 18.5913C33.5495 17.761 33.2935 16.799 33.2935 15.7053V5.72727H36.0602V15.4741C36.0602 16.1104 36.1994 16.6772 36.4778 17.1744C36.7612 17.6715 37.1589 18.0618 37.671 18.3452C38.1831 18.6236 38.7896 18.7628 39.4906 18.7628C40.1916 18.7628 40.7981 18.6236 41.3102 18.3452C41.8272 18.0618 42.225 17.6715 42.5034 17.1744C42.7818 16.6772 42.921 16.1104 42.921 15.4741V5.72727ZM66.9767 10.8803H64.1876C64.108 10.4229 63.9614 10.0178 63.7476 9.66477C63.5338 9.30682 63.2678 9.00355 62.9497 8.75497C62.6315 8.50639 62.2686 8.31996 61.8609 8.19567C61.4582 8.06641 61.0232 8.00178 60.5558 8.00178C59.7256 8.00178 58.9898 8.21058 58.3485 8.6282C57.7071 9.04084 57.205 9.64737 56.8421 10.4478C56.4791 11.2433 56.2977 12.2152 56.2977 13.3636C56.2977 14.532 56.4791 15.5163 56.8421 16.3168C57.21 17.1122 57.7121 17.7138 58.3485 18.1214C58.9898 18.5241 59.7231 18.7255 60.5484 18.7255C61.0058 18.7255 61.4333 18.6658 61.8311 18.5465C62.2338 18.4222 62.5942 18.2408 62.9124 18.0021C63.2355 17.7635 63.5065 17.4702 63.7252 17.1222C63.949 16.7741 64.1031 16.3764 64.1876 15.929L66.9767 15.9439C66.8722 16.6697 66.646 17.3509 66.298 17.9872C65.955 18.6236 65.5051 19.1854 64.9482 19.6726C64.3914 20.1548 63.7401 20.5327 62.9944 20.8061C62.2487 21.0746 61.4209 21.2088 60.5111 21.2088C59.1688 21.2088 57.9706 20.8981 56.9166 20.2766C55.8627 19.6552 55.0324 18.7578 54.4259 17.5845C53.8193 16.4112 53.5161 15.0043 53.5161 13.3636C53.5161 11.718 53.8218 10.3111 54.4333 9.14276C55.0448 7.96946 55.8776 7.07209 56.9316 6.45064C57.9855 5.82919 59.1787 5.51847 60.5111 5.51847C61.3612 5.51847 62.1517 5.63778 62.8825 5.87642C63.6134 6.11506 64.2646 6.46555 64.8364 6.92791C65.4081 7.3853 65.8779 7.94709 66.2458 8.61328C66.6187 9.2745 66.8623 10.0302 66.9767 10.8803ZM71.287 21H68.3339L73.7107 5.72727H77.1262L82.5104 21H79.5573L75.4781 8.85938H75.3588L71.287 21ZM71.384 15.0117H79.4379V17.234H71.384V15.0117ZM92.576 9.92578C92.5064 9.2745 92.2131 8.7674 91.696 8.40447C91.1839 8.04155 90.5178 7.86008 89.6974 7.86008C89.1207 7.86008 88.6261 7.94709 88.2134 8.12109C87.8008 8.2951 87.4851 8.53125 87.2663 8.82954C87.0476 9.12784 86.9357 9.4684 86.9308 9.85121C86.9308 10.1694 87.0028 10.4453 87.147 10.679C87.2962 10.9126 87.4975 11.1115 87.7511 11.2756C88.0046 11.4347 88.2855 11.5689 88.5938 11.6783C88.902 11.7876 89.2127 11.8796 89.5259 11.9542L90.9577 12.3121C91.5344 12.4464 92.0888 12.6278 92.6207 12.8565C93.1577 13.0852 93.6374 13.3736 94.06 13.7216C94.4876 14.0696 94.8256 14.4897 95.0742 14.9819C95.3228 15.4741 95.4471 16.0508 95.4471 16.712C95.4471 17.6069 95.2184 18.3949 94.761 19.076C94.3036 19.7521 93.6424 20.2816 92.7773 20.6644C91.9173 21.0423 90.8757 21.2312 89.6527 21.2312C88.4645 21.2312 87.4329 21.0472 86.5579 20.6793C85.6879 20.3114 85.0067 19.7745 84.5146 19.0685C84.0273 18.3626 83.7638 17.5025 83.7241 16.4883H86.446C86.4858 17.0202 86.6499 17.4627 86.9382 17.8157C87.2266 18.1687 87.6019 18.4322 88.0643 18.6062C88.5316 18.7802 89.0536 18.8672 89.6303 18.8672C90.2319 18.8672 90.7589 18.7777 91.2113 18.5987C91.6687 18.4148 92.0266 18.1612 92.2852 17.8381C92.5437 17.5099 92.6754 17.1271 92.6804 16.6896C92.6754 16.2919 92.5586 15.9638 92.3299 15.7053C92.1012 15.4418 91.7805 15.223 91.3679 15.049C90.9602 14.87 90.483 14.7109 89.9361 14.5717L88.1985 14.1243C86.9407 13.8011 85.9464 13.3114 85.2156 12.6552C84.4897 11.994 84.1268 11.1165 84.1268 10.0227C84.1268 9.12287 84.3704 8.33487 84.8576 7.65874C85.3498 6.9826 86.0185 6.4581 86.8636 6.08523C87.7088 5.70739 88.6658 5.51847 89.7347 5.51847C90.8185 5.51847 91.7681 5.70739 92.5835 6.08523C93.4038 6.4581 94.0476 6.97763 94.5149 7.64382C94.9822 8.30504 95.2234 9.0657 95.2383 9.92578H92.576ZM111.561 13.3636C111.561 15.0092 111.252 16.4187 110.636 17.592C110.024 18.7603 109.189 19.6552 108.13 20.2766C107.076 20.8981 105.881 21.2088 104.543 21.2088C103.206 21.2088 102.008 20.8981 100.949 20.2766C99.8948 19.6502 99.0596 18.7528 98.4431 17.5845C97.8316 16.4112 97.5258 15.0043 97.5258 13.3636C97.5258 11.718 97.8316 10.3111 98.4431 9.14276C99.0596 7.96946 99.8948 7.07209 100.949 6.45064C102.008 5.82919 103.206 5.51847 104.543 5.51847C105.881 5.51847 107.076 5.82919 108.13 6.45064C109.189 7.07209 110.024 7.96946 110.636 9.14276C111.252 10.3111 111.561 11.718 111.561 13.3636ZM108.779 13.3636C108.779 12.2053 108.598 11.2283 108.235 10.4329C107.877 9.63246 107.38 9.02841 106.743 8.62074C106.107 8.2081 105.373 8.00178 104.543 8.00178C103.713 8.00178 102.98 8.2081 102.343 8.62074C101.707 9.02841 101.207 9.63246 100.844 10.4329C100.486 11.2283 100.307 12.2053 100.307 13.3636C100.307 14.522 100.486 15.5014 100.844 16.3018C101.207 17.0973 101.707 17.7013 102.343 18.114C102.98 18.5217 103.713 18.7255 104.543 18.7255C105.373 18.7255 106.107 18.5217 106.743 18.114C107.38 17.7013 107.877 17.0973 108.235 16.3018C108.598 15.5014 108.779 14.522 108.779 13.3636ZM103.507 4.22088L105.177 0.812855H107.817L105.528 4.22088H103.507ZM114.176 21V5.72727H119.904C121.077 5.72727 122.061 5.93111 122.857 6.33878C123.657 6.74645 124.261 7.31818 124.669 8.05398C125.081 8.7848 125.288 9.63743 125.288 10.6119C125.288 11.5913 125.079 12.4414 124.661 13.1623C124.249 13.8782 123.64 14.4325 122.834 14.8253C122.029 15.2131 121.04 15.407 119.866 15.407H115.787V13.1101H119.493C120.18 13.1101 120.741 13.0156 121.179 12.8267C121.616 12.6328 121.939 12.3519 122.148 11.984C122.362 11.6112 122.469 11.1538 122.469 10.6119C122.469 10.07 122.362 9.6076 122.148 9.22479C121.934 8.837 121.609 8.54368 121.171 8.34481C120.734 8.14098 120.17 8.03906 119.479 8.03906H116.943V21H114.176ZM122.066 14.0795L125.847 21H122.76L119.046 14.0795H122.066ZM130.601 5.72727V21H127.835V5.72727H130.601ZM147.244 13.3636C147.244 15.0092 146.936 16.4187 146.32 17.592C145.708 18.7603 144.873 19.6552 143.814 20.2766C142.76 20.8981 141.564 21.2088 140.227 21.2088C138.889 21.2088 137.691 20.8981 136.632 20.2766C135.578 19.6502 134.743 18.7528 134.127 17.5845C133.515 16.4112 133.209 15.0043 133.209 13.3636C133.209 11.718 133.515 10.3111 134.127 9.14276C134.743 7.96946 135.578 7.07209 136.632 6.45064C137.691 5.82919 138.889 5.51847 140.227 5.51847C141.564 5.51847 142.76 5.82919 143.814 6.45064C144.873 7.07209 145.708 7.96946 146.32 9.14276C146.936 10.3111 147.244 11.718 147.244 13.3636ZM144.463 13.3636C144.463 12.2053 144.281 11.2283 143.918 10.4329C143.56 9.63246 143.063 9.02841 142.427 8.62074C141.79 8.2081 141.057 8.00178 140.227 8.00178C139.397 8.00178 138.663 8.2081 138.027 8.62074C137.391 9.02841 136.891 9.63246 136.528 10.4329C136.17 11.2283 135.991 12.2053 135.991 13.3636C135.991 14.522 136.17 15.5014 136.528 16.3018C136.891 17.0973 137.391 17.7013 138.027 18.114C138.663 18.5217 139.397 18.7255 140.227 18.7255C141.057 18.7255 141.79 18.5217 142.427 18.114C143.063 17.7013 143.56 17.0973 143.918 16.3018C144.281 15.5014 144.463 14.522 144.463 13.3636Z" fill="white"/>
<path d="M168.582 11.2607H164.853C164.803 10.8778 164.701 10.5323 164.547 10.2241C164.393 9.91584 164.189 9.65234 163.936 9.43359C163.682 9.21484 163.381 9.0483 163.033 8.93395C162.69 8.81463 162.31 8.75497 161.892 8.75497C161.152 8.75497 160.513 8.93643 159.976 9.29936C159.444 9.66229 159.034 10.1868 158.745 10.8729C158.462 11.5589 158.32 12.3892 158.32 13.3636C158.32 14.3778 158.464 15.228 158.753 15.9141C159.046 16.5952 159.456 17.1097 159.983 17.4577C160.515 17.8008 161.144 17.9723 161.87 17.9723C162.278 17.9723 162.648 17.9201 162.981 17.8157C163.319 17.7113 163.615 17.5597 163.869 17.3608C164.127 17.157 164.338 16.9109 164.502 16.6225C164.672 16.3292 164.788 15.9986 164.853 15.6307L168.582 15.6531C168.517 16.3292 168.321 16.9954 167.993 17.6516C167.669 18.3079 167.224 18.907 166.658 19.4489C166.091 19.9858 165.4 20.4134 164.585 20.7315C163.774 21.0497 162.844 21.2088 161.795 21.2088C160.413 21.2088 159.175 20.9055 158.082 20.299C156.993 19.6875 156.133 18.7976 155.501 17.6293C154.87 16.4609 154.554 15.0391 154.554 13.3636C154.554 11.6832 154.875 10.2589 155.516 9.09055C156.158 7.92223 157.025 7.0348 158.119 6.42827C159.213 5.82173 160.438 5.51847 161.795 5.51847C162.72 5.51847 163.575 5.64773 164.361 5.90625C165.146 6.1598 165.837 6.53267 166.434 7.02486C167.031 7.51207 167.515 8.11115 167.888 8.82209C168.261 9.53303 168.492 10.3459 168.582 11.2607ZM170.694 21V5.72727H174.385V18.0021H180.739V21H170.694ZM191.89 5.72727H195.574V15.5785C195.574 16.717 195.303 17.7088 194.761 18.554C194.219 19.3942 193.463 20.0455 192.494 20.5078C191.524 20.9652 190.398 21.1939 189.116 21.1939C187.818 21.1939 186.684 20.9652 185.715 20.5078C184.746 20.0455 183.992 19.3942 183.455 18.554C182.919 17.7088 182.65 16.717 182.65 15.5785V5.72727H186.341V15.2578C186.341 15.7848 186.456 16.2546 186.684 16.6673C186.918 17.0799 187.244 17.4031 187.661 17.6367C188.079 17.8704 188.564 17.9872 189.116 17.9872C189.667 17.9872 190.15 17.8704 190.562 17.6367C190.98 17.4031 191.306 17.0799 191.539 16.6673C191.773 16.2546 191.89 15.7848 191.89 15.2578V5.72727ZM197.887 21V5.72727H204.256C205.399 5.72727 206.356 5.88885 207.127 6.212C207.903 6.53516 208.484 6.98757 208.872 7.56925C209.265 8.15092 209.461 8.82457 209.461 9.5902C209.461 10.1719 209.339 10.6914 209.096 11.1488C208.852 11.6012 208.517 11.9766 208.089 12.2749C207.661 12.5732 207.167 12.782 206.605 12.9013V13.0504C207.222 13.0803 207.791 13.2468 208.313 13.5501C208.84 13.8533 209.262 14.2759 209.581 14.8178C209.899 15.3548 210.058 15.9911 210.058 16.7269C210.058 17.5472 209.849 18.2805 209.431 18.9268C209.014 19.5682 208.41 20.0753 207.619 20.4482C206.829 20.8161 205.869 21 204.741 21H197.887ZM201.579 18.0245H203.861C204.661 18.0245 205.25 17.8729 205.628 17.5696C206.011 17.2663 206.202 16.8438 206.202 16.3018C206.202 15.9091 206.11 15.571 205.926 15.2876C205.742 14.9993 205.481 14.7781 205.143 14.6239C204.805 14.4648 204.4 14.3853 203.928 14.3853H201.579V18.0245ZM201.579 12.0064H203.622C204.025 12.0064 204.383 11.9393 204.696 11.805C205.009 11.6708 205.253 11.4769 205.427 11.2234C205.606 10.9698 205.695 10.6641 205.695 10.3061C205.695 9.79403 205.514 9.39133 205.151 9.09801C204.788 8.80469 204.298 8.65803 203.682 8.65803H201.579V12.0064Z" fill="#381F7E"/>
<path d="M40.544 50.09C39.848 50.09 39.062 50.03 38.186 49.91C37.706 49.85 37.376 49.724 37.196 49.532C37.016 49.34 36.938 49.028 36.962 48.596C37.046 47.408 37.244 45.944 37.556 44.204C37.868 42.452 38.246 40.766 38.69 39.146C38.774 38.846 38.942 38.636 39.194 38.516C39.446 38.396 39.776 38.336 40.184 38.336C40.916 38.336 41.282 38.54 41.282 38.948C41.282 39.116 41.246 39.308 41.174 39.524C40.862 40.484 40.55 41.774 40.238 43.394C39.926 45.002 39.704 46.538 39.572 48.002C39.932 48.038 40.34 48.056 40.796 48.056C42.896 48.056 44.462 47.42 45.494 46.148C46.538 44.876 47.06 43.178 47.06 41.054C47.06 39.626 46.652 38.522 45.836 37.742C45.02 36.962 43.868 36.572 42.38 36.572C41.42 36.572 40.466 36.722 39.518 37.022C38.582 37.322 37.736 37.718 36.98 38.21C36.824 38.318 36.656 38.372 36.476 38.372C36.272 38.372 36.11 38.288 35.99 38.12C35.87 37.94 35.81 37.724 35.81 37.472C35.81 37.184 35.858 36.95 35.954 36.77C36.05 36.578 36.212 36.404 36.44 36.248C37.268 35.684 38.24 35.258 39.356 34.97C40.472 34.67 41.546 34.52 42.578 34.52C44.042 34.52 45.308 34.778 46.376 35.294C47.444 35.798 48.266 36.542 48.842 37.526C49.418 38.51 49.706 39.698 49.706 41.09C49.706 42.902 49.346 44.486 48.626 45.842C47.906 47.186 46.856 48.23 45.476 48.974C44.096 49.718 42.452 50.09 40.544 50.09ZM58.9389 45.986C59.0949 45.986 59.2149 46.058 59.2989 46.202C59.3949 46.346 59.4429 46.544 59.4429 46.796C59.4429 47.276 59.3289 47.648 59.1009 47.912C58.6569 48.452 58.0269 48.95 57.2109 49.406C56.4069 49.862 55.5429 50.09 54.6189 50.09C53.3589 50.09 52.3809 49.748 51.6849 49.064C50.9889 48.38 50.6409 47.444 50.6409 46.256C50.6409 45.428 50.8149 44.66 51.1629 43.952C51.5109 43.232 51.9909 42.662 52.6029 42.242C53.2269 41.822 53.9289 41.612 54.7089 41.612C55.4049 41.612 55.9629 41.822 56.3829 42.242C56.8029 42.65 57.0129 43.208 57.0129 43.916C57.0129 44.744 56.7129 45.458 56.1129 46.058C55.5249 46.646 54.5229 47.114 53.1069 47.462C53.4069 48.014 53.9769 48.29 54.8169 48.29C55.3569 48.29 55.9689 48.104 56.6529 47.732C57.3489 47.348 57.9489 46.85 58.4529 46.238C58.5969 46.07 58.7589 45.986 58.9389 45.986ZM54.4029 43.376C53.9589 43.376 53.5809 43.634 53.2689 44.15C52.9689 44.666 52.8189 45.29 52.8189 46.022V46.058C53.5269 45.89 54.0849 45.638 54.4929 45.302C54.9009 44.966 55.1049 44.576 55.1049 44.132C55.1049 43.904 55.0389 43.724 54.9069 43.592C54.7869 43.448 54.6189 43.376 54.4029 43.376ZM60.3353 40.424C59.8313 40.424 59.4533 40.31 59.2013 40.082C58.9493 39.842 58.8233 39.512 58.8233 39.092C58.8233 38.672 58.9853 38.324 59.3093 38.048C59.6453 37.76 60.0593 37.616 60.5513 37.616C60.9953 37.616 61.3553 37.724 61.6313 37.94C61.9073 38.156 62.0453 38.462 62.0453 38.858C62.0453 39.338 61.8893 39.722 61.5773 40.01C61.2653 40.286 60.8513 40.424 60.3353 40.424ZM60.1913 50.09C59.4113 50.09 58.8413 49.814 58.4813 49.262C58.1333 48.71 57.9593 47.978 57.9593 47.066C57.9593 46.526 58.0253 45.836 58.1573 44.996C58.3013 44.144 58.4813 43.352 58.6973 42.62C58.8053 42.236 58.9493 41.972 59.1293 41.828C59.3093 41.684 59.5973 41.612 59.9933 41.612C60.6053 41.612 60.9113 41.816 60.9113 42.224C60.9113 42.524 60.7973 43.22 60.5693 44.312C60.2813 45.632 60.1373 46.526 60.1373 46.994C60.1373 47.354 60.1853 47.63 60.2813 47.822C60.3773 48.014 60.5393 48.11 60.7673 48.11C60.9833 48.11 61.2533 47.96 61.5773 47.66C61.9013 47.36 62.3333 46.886 62.8733 46.238C63.0173 46.07 63.1793 45.986 63.3593 45.986C63.5153 45.986 63.6353 46.058 63.7193 46.202C63.8153 46.346 63.8633 46.544 63.8633 46.796C63.8633 47.276 63.7493 47.648 63.5213 47.912C62.3333 49.364 61.2233 50.09 60.1913 50.09ZM72.883 45.986C73.039 45.986 73.159 46.058 73.243 46.202C73.339 46.346 73.387 46.544 73.387 46.796C73.387 47.276 73.273 47.648 73.045 47.912C72.517 48.536 71.935 49.058 71.299 49.478C70.675 49.886 69.967 50.09 69.175 50.09C68.563 50.09 68.017 49.976 67.537 49.748C67.069 49.52 66.697 49.196 66.421 48.776C65.737 49.64 64.927 50.072 63.991 50.072C63.331 50.072 62.809 49.88 62.425 49.496C62.041 49.112 61.849 48.602 61.849 47.966C61.849 47.366 61.987 46.88 62.263 46.508C62.539 46.136 62.929 45.95 63.433 45.95C63.865 45.95 64.081 46.112 64.081 46.436C64.081 46.52 64.069 46.67 64.045 46.886C64.009 47.318 63.991 47.564 63.991 47.624C63.991 47.984 64.147 48.164 64.459 48.164C64.687 48.164 64.903 48.032 65.107 47.768C65.323 47.492 65.497 47.12 65.629 46.652C65.773 46.184 65.845 45.668 65.845 45.104C65.845 44.672 65.791 44.312 65.683 44.024C65.575 43.724 65.443 43.574 65.287 43.574C65.155 43.574 65.059 43.61 64.999 43.682C64.939 43.742 64.879 43.85 64.819 44.006C64.747 44.198 64.651 44.354 64.531 44.474C64.411 44.582 64.201 44.636 63.901 44.636C63.637 44.636 63.427 44.546 63.271 44.366C63.115 44.174 63.037 43.886 63.037 43.502C63.037 42.89 63.223 42.41 63.595 42.062C63.967 41.714 64.447 41.54 65.035 41.54C65.539 41.54 65.995 41.666 66.403 41.918C66.811 42.158 67.123 42.512 67.339 42.98C67.699 42.5 68.101 42.14 68.545 41.9C69.001 41.66 69.445 41.54 69.877 41.54C70.345 41.54 70.699 41.648 70.939 41.864C71.191 42.08 71.317 42.428 71.317 42.908C71.317 43.448 71.215 43.874 71.011 44.186C70.807 44.486 70.561 44.636 70.273 44.636C70.009 44.636 69.829 44.582 69.733 44.474C69.637 44.366 69.565 44.21 69.517 44.006C69.493 43.862 69.457 43.754 69.409 43.682C69.361 43.61 69.277 43.574 69.157 43.574C69.013 43.574 68.857 43.712 68.689 43.988C68.533 44.252 68.395 44.606 68.275 45.05C68.167 45.494 68.113 45.956 68.113 46.436C68.113 47 68.245 47.438 68.509 47.75C68.785 48.05 69.157 48.2 69.625 48.2C70.093 48.2 70.531 48.044 70.939 47.732C71.359 47.408 71.845 46.91 72.397 46.238C72.541 46.07 72.703 45.986 72.883 45.986ZM73.8285 50.09C73.1445 50.09 72.5865 49.82 72.1545 49.28C71.7345 48.74 71.5245 48.032 71.5245 47.156C71.5245 46.196 71.7465 45.29 72.1905 44.438C72.6345 43.574 73.2225 42.884 73.9545 42.368C74.6985 41.84 75.4845 41.576 76.3125 41.576C76.5765 41.576 76.7505 41.63 76.8345 41.738C76.9305 41.834 77.0085 42.014 77.0685 42.278C77.2965 42.23 77.5485 42.206 77.8245 42.206C78.1125 42.206 78.3345 42.278 78.4905 42.422C78.6465 42.566 78.7245 42.77 78.7245 43.034C78.7245 43.31 78.6645 43.79 78.5445 44.474C78.4125 45.206 78.3105 45.908 78.2385 46.58C78.1665 47.24 78.1305 47.984 78.1305 48.812C78.1305 49.268 78.0345 49.598 77.8425 49.802C77.6625 49.994 77.3625 50.09 76.9425 50.09C76.5345 50.09 76.2285 49.994 76.0245 49.802C75.8325 49.598 75.7365 49.274 75.7365 48.83L75.7545 48.542C75.3825 49.574 74.7405 50.09 73.8285 50.09ZM74.5305 48.272C74.8665 48.272 75.1725 48.038 75.4485 47.57C75.7245 47.102 75.9705 46.268 76.1865 45.068L76.5285 43.25C76.0365 43.262 75.5805 43.454 75.1605 43.826C74.7405 44.186 74.4045 44.666 74.1525 45.266C73.9005 45.866 73.7745 46.502 73.7745 47.174C73.7745 47.534 73.8405 47.81 73.9725 48.002C74.1165 48.182 74.3025 48.272 74.5305 48.272ZM88.2043 50.09C87.0283 50.09 86.1103 49.76 85.4503 49.1C84.8023 48.428 84.4783 47.546 84.4783 46.454C84.4783 45.482 84.6703 44.63 85.0543 43.898C85.4383 43.166 85.9363 42.602 86.5483 42.206C87.1603 41.81 87.8023 41.612 88.4743 41.612C89.1343 41.612 89.6443 41.81 90.0043 42.206C90.3763 42.59 90.5623 43.088 90.5623 43.7C90.5623 44.204 90.4483 44.63 90.2203 44.978C90.0043 45.326 89.7163 45.5 89.3563 45.5C89.1283 45.5 88.9423 45.446 88.7983 45.338C88.6663 45.23 88.6003 45.08 88.6003 44.888C88.6003 44.804 88.6123 44.708 88.6363 44.6C88.6603 44.492 88.6783 44.414 88.6903 44.366C88.7503 44.186 88.7803 44.018 88.7803 43.862C88.7803 43.706 88.7383 43.586 88.6543 43.502C88.5823 43.418 88.4743 43.376 88.3303 43.376C88.0543 43.376 87.7963 43.502 87.5563 43.754C87.3163 43.994 87.1243 44.324 86.9803 44.744C86.8363 45.164 86.7643 45.626 86.7643 46.13C86.7643 47.522 87.3703 48.218 88.5823 48.218C89.0743 48.218 89.6023 48.056 90.1663 47.732C90.7423 47.396 91.3063 46.898 91.8583 46.238C92.0023 46.07 92.1643 45.986 92.3443 45.986C92.5003 45.986 92.6203 46.058 92.7043 46.202C92.8003 46.346 92.8483 46.544 92.8483 46.796C92.8483 47.252 92.7343 47.624 92.5063 47.912C91.9423 48.608 91.2643 49.148 90.4723 49.532C89.6923 49.904 88.9363 50.09 88.2043 50.09ZM100.573 44.474C100.729 44.474 100.849 44.552 100.933 44.708C101.017 44.864 101.059 45.062 101.059 45.302C101.059 45.878 100.885 46.22 100.537 46.328C99.8173 46.58 99.0253 46.724 98.1613 46.76C97.9333 47.768 97.4833 48.578 96.8113 49.19C96.1393 49.79 95.3773 50.09 94.5253 50.09C93.8053 50.09 93.1873 49.916 92.6713 49.568C92.1673 49.22 91.7833 48.758 91.5193 48.182C91.2553 47.606 91.1233 46.982 91.1233 46.31C91.1233 45.398 91.2973 44.588 91.6453 43.88C91.9933 43.16 92.4733 42.602 93.0853 42.206C93.6973 41.798 94.3753 41.594 95.1193 41.594C96.0313 41.594 96.7633 41.912 97.3153 42.548C97.8793 43.172 98.2093 43.946 98.3053 44.87C98.8693 44.834 99.5413 44.714 100.321 44.51C100.417 44.486 100.501 44.474 100.573 44.474ZM94.6693 48.182C95.0533 48.182 95.3833 48.026 95.6593 47.714C95.9473 47.402 96.1393 46.952 96.2353 46.364C95.8633 46.112 95.5753 45.782 95.3713 45.374C95.1793 44.966 95.0833 44.534 95.0833 44.078C95.0833 43.886 95.1013 43.694 95.1373 43.502H95.0473C94.5673 43.502 94.1653 43.736 93.8413 44.204C93.5293 44.66 93.3733 45.308 93.3733 46.148C93.3733 46.808 93.4993 47.312 93.7513 47.66C94.0153 48.008 94.3213 48.182 94.6693 48.182ZM100.792 50.09C100.336 50.09 100.012 49.85 99.8204 49.37C99.6404 48.89 99.5504 48.122 99.5504 47.066C99.5504 45.506 99.7724 44.024 100.216 42.62C100.324 42.272 100.498 42.02 100.738 41.864C100.99 41.696 101.338 41.612 101.782 41.612C102.022 41.612 102.19 41.642 102.286 41.702C102.382 41.762 102.43 41.876 102.43 42.044C102.43 42.236 102.34 42.668 102.16 43.34C102.04 43.82 101.944 44.24 101.872 44.6C101.8 44.948 101.74 45.386 101.692 45.914C102.016 44.978 102.4 44.186 102.844 43.538C103.3 42.89 103.762 42.41 104.23 42.098C104.71 41.774 105.16 41.612 105.58 41.612C106 41.612 106.294 41.708 106.462 41.9C106.642 42.092 106.732 42.386 106.732 42.782C106.732 43.166 106.618 43.862 106.39 44.87C106.294 45.302 106.228 45.626 106.192 45.842C106.588 44.834 107.026 44.012 107.506 43.376C107.998 42.74 108.478 42.29 108.946 42.026C109.414 41.75 109.846 41.612 110.242 41.612C110.626 41.612 110.914 41.714 111.106 41.918C111.31 42.11 111.412 42.398 111.412 42.782C111.412 43.094 111.346 43.682 111.214 44.546C111.094 45.278 110.998 45.974 110.926 46.634C110.854 47.282 110.818 48.008 110.818 48.812C110.818 49.268 110.722 49.598 110.53 49.802C110.35 49.994 110.05 50.09 109.63 50.09C109.234 50.09 108.946 49.988 108.766 49.784C108.586 49.58 108.496 49.274 108.496 48.866C108.496 48.386 108.58 47.594 108.748 46.49C108.892 45.53 108.964 44.918 108.964 44.654C108.964 44.462 108.898 44.366 108.766 44.366C108.61 44.366 108.388 44.57 108.1 44.978C107.812 45.374 107.524 45.902 107.236 46.562C106.948 47.222 106.714 47.918 106.534 48.65C106.402 49.226 106.246 49.61 106.066 49.802C105.898 49.994 105.622 50.09 105.238 50.09C104.842 50.09 104.542 49.904 104.338 49.532C104.146 49.148 104.05 48.686 104.05 48.146C104.05 47.69 104.11 47.03 104.23 46.166C104.326 45.398 104.374 44.894 104.374 44.654C104.374 44.462 104.308 44.366 104.176 44.366C103.996 44.366 103.768 44.582 103.492 45.014C103.216 45.446 102.946 45.998 102.682 46.67C102.43 47.342 102.226 48.002 102.07 48.65C101.938 49.214 101.782 49.598 101.602 49.802C101.434 49.994 101.164 50.09 100.792 50.09ZM119.532 50.09C118.848 50.09 118.29 49.82 117.858 49.28C117.438 48.74 117.228 48.032 117.228 47.156C117.228 46.196 117.45 45.29 117.894 44.438C118.338 43.574 118.926 42.884 119.658 42.368C120.402 41.84 121.188 41.576 122.016 41.576C122.28 41.576 122.454 41.63 122.538 41.738C122.634 41.834 122.712 42.014 122.772 42.278C123 42.23 123.252 42.206 123.528 42.206C123.816 42.206 124.038 42.278 124.194 42.422C124.35 42.566 124.428 42.77 124.428 43.034C124.428 43.31 124.368 43.79 124.248 44.474C124.116 45.206 124.014 45.908 123.942 46.58C123.87 47.24 123.834 47.984 123.834 48.812C123.834 49.268 123.738 49.598 123.546 49.802C123.366 49.994 123.066 50.09 122.646 50.09C122.238 50.09 121.932 49.994 121.728 49.802C121.536 49.598 121.44 49.274 121.44 48.83L121.458 48.542C121.086 49.574 120.444 50.09 119.532 50.09ZM120.234 48.272C120.57 48.272 120.876 48.038 121.152 47.57C121.428 47.102 121.674 46.268 121.89 45.068L122.232 43.25C121.74 43.262 121.284 43.454 120.864 43.826C120.444 44.186 120.108 44.666 119.856 45.266C119.604 45.866 119.478 46.502 119.478 47.174C119.478 47.534 119.544 47.81 119.676 48.002C119.82 48.182 120.006 48.272 120.234 48.272ZM139.685 46.022C139.841 46.022 139.961 46.1 140.045 46.256C140.141 46.4 140.189 46.586 140.189 46.814C140.189 47.09 140.147 47.306 140.063 47.462C139.979 47.618 139.847 47.756 139.667 47.876C138.635 48.572 137.879 49.088 137.399 49.424L136.247 50.198C135.791 52.682 135.191 54.632 134.447 56.048C133.715 57.476 132.779 58.19 131.639 58.19C131.027 58.19 130.529 57.998 130.145 57.614C129.761 57.242 129.569 56.75 129.569 56.138C129.569 55.286 129.905 54.368 130.577 53.384C131.249 52.412 132.509 51.212 134.357 49.784L134.465 49.082C134.261 49.406 133.991 49.658 133.655 49.838C133.331 50.006 133.007 50.09 132.683 50.09C131.939 50.09 131.345 49.82 130.901 49.28C130.457 48.74 130.235 48.032 130.235 47.156C130.235 46.196 130.457 45.29 130.901 44.438C131.345 43.574 131.933 42.884 132.665 42.368C133.409 41.84 134.195 41.576 135.023 41.576C135.287 41.576 135.461 41.63 135.545 41.738C135.641 41.834 135.719 42.014 135.779 42.278C136.007 42.23 136.271 42.206 136.571 42.206C136.871 42.206 137.081 42.254 137.201 42.35C137.333 42.434 137.399 42.608 137.399 42.872C137.399 43.016 137.393 43.13 137.381 43.214C137.333 43.586 137.183 44.528 136.931 46.04C136.883 46.328 136.829 46.646 136.769 46.994C136.721 47.33 136.667 47.69 136.607 48.074C137.531 47.354 138.419 46.718 139.271 46.166C139.427 46.07 139.565 46.022 139.685 46.022ZM133.331 48.272C133.607 48.272 133.871 48.104 134.123 47.768C134.375 47.432 134.555 46.952 134.663 46.328L135.239 43.25C134.747 43.262 134.291 43.454 133.871 43.826C133.451 44.186 133.115 44.666 132.863 45.266C132.611 45.866 132.485 46.502 132.485 47.174C132.485 47.546 132.557 47.822 132.701 48.002C132.857 48.182 133.067 48.272 133.331 48.272ZM131.837 56.444C132.137 56.444 132.473 56.084 132.845 55.364C133.229 54.644 133.595 53.498 133.943 51.926C133.019 52.718 132.353 53.432 131.945 54.068C131.537 54.704 131.333 55.262 131.333 55.742C131.333 55.946 131.369 56.114 131.441 56.246C131.525 56.378 131.657 56.444 131.837 56.444ZM147.111 45.986C147.267 45.986 147.387 46.058 147.471 46.202C147.567 46.346 147.615 46.544 147.615 46.796C147.615 47.276 147.501 47.648 147.273 47.912C146.829 48.452 146.199 48.95 145.383 49.406C144.579 49.862 143.715 50.09 142.791 50.09C141.531 50.09 140.553 49.748 139.857 49.064C139.161 48.38 138.813 47.444 138.813 46.256C138.813 45.428 138.987 44.66 139.335 43.952C139.683 43.232 140.163 42.662 140.775 42.242C141.399 41.822 142.101 41.612 142.881 41.612C143.577 41.612 144.135 41.822 144.555 42.242C144.975 42.65 145.185 43.208 145.185 43.916C145.185 44.744 144.885 45.458 144.285 46.058C143.697 46.646 142.695 47.114 141.279 47.462C141.579 48.014 142.149 48.29 142.989 48.29C143.529 48.29 144.141 48.104 144.825 47.732C145.521 47.348 146.121 46.85 146.625 46.238C146.769 46.07 146.931 45.986 147.111 45.986ZM142.575 43.376C142.131 43.376 141.753 43.634 141.441 44.15C141.141 44.666 140.991 45.29 140.991 46.022V46.058C141.699 45.89 142.257 45.638 142.665 45.302C143.073 44.966 143.277 44.576 143.277 44.132C143.277 43.904 143.211 43.724 143.079 43.592C142.959 43.448 142.791 43.376 142.575 43.376ZM147.427 50.09C146.971 50.09 146.647 49.85 146.455 49.37C146.275 48.89 146.185 48.122 146.185 47.066C146.185 45.506 146.407 44.024 146.851 42.62C146.959 42.272 147.133 42.02 147.373 41.864C147.625 41.696 147.973 41.612 148.417 41.612C148.657 41.612 148.825 41.642 148.921 41.702C149.017 41.762 149.065 41.876 149.065 42.044C149.065 42.236 148.975 42.668 148.795 43.34C148.675 43.82 148.579 44.24 148.507 44.6C148.435 44.96 148.375 45.404 148.327 45.932C148.723 44.9 149.167 44.06 149.659 43.412C150.151 42.764 150.631 42.302 151.099 42.026C151.579 41.75 152.017 41.612 152.413 41.612C153.193 41.612 153.583 42.002 153.583 42.782C153.583 43.25 153.451 44.096 153.187 45.32C152.959 46.364 152.845 47.054 152.845 47.39C152.845 47.87 153.019 48.11 153.367 48.11C153.607 48.11 153.889 47.966 154.213 47.678C154.549 47.378 154.993 46.898 155.545 46.238C155.689 46.07 155.851 45.986 156.031 45.986C156.187 45.986 156.307 46.058 156.391 46.202C156.487 46.346 156.535 46.544 156.535 46.796C156.535 47.276 156.421 47.648 156.193 47.912C155.677 48.548 155.119 49.07 154.519 49.478C153.931 49.886 153.259 50.09 152.503 50.09C151.891 50.09 151.429 49.916 151.117 49.568C150.805 49.208 150.649 48.692 150.649 48.02C150.649 47.684 150.733 47.084 150.901 46.22C151.057 45.464 151.135 44.942 151.135 44.654C151.135 44.462 151.069 44.366 150.937 44.366C150.781 44.366 150.559 44.57 150.271 44.978C149.995 45.374 149.707 45.902 149.407 46.562C149.119 47.222 148.885 47.918 148.705 48.65C148.573 49.214 148.417 49.598 148.237 49.802C148.069 49.994 147.799 50.09 147.427 50.09ZM163.107 45.986C163.263 45.986 163.383 46.058 163.467 46.202C163.563 46.346 163.611 46.544 163.611 46.796C163.611 47.276 163.497 47.648 163.269 47.912C162.753 48.548 162.189 49.07 161.577 49.478C160.965 49.886 160.263 50.09 159.471 50.09C157.023 50.09 155.799 48.368 155.799 44.924C155.799 44.396 155.817 43.862 155.853 43.322H155.151C154.791 43.322 154.545 43.256 154.413 43.124C154.293 42.992 154.233 42.782 154.233 42.494C154.233 41.822 154.503 41.486 155.043 41.486H156.069C156.273 40.166 156.585 38.96 157.005 37.868C157.425 36.776 157.929 35.906 158.517 35.258C159.117 34.61 159.759 34.286 160.443 34.286C160.947 34.286 161.343 34.508 161.631 34.952C161.919 35.396 162.063 35.954 162.063 36.626C162.063 38.486 161.283 40.106 159.723 41.486H161.739C161.931 41.486 162.069 41.528 162.153 41.612C162.237 41.696 162.279 41.852 162.279 42.08C162.279 42.908 161.601 43.322 160.245 43.322H158.049C158.025 43.922 158.013 44.39 158.013 44.726C158.013 45.974 158.157 46.85 158.445 47.354C158.745 47.858 159.213 48.11 159.849 48.11C160.365 48.11 160.821 47.954 161.217 47.642C161.613 47.33 162.081 46.862 162.621 46.238C162.765 46.07 162.927 45.986 163.107 45.986ZM159.957 36.014C159.777 36.014 159.573 36.242 159.345 36.698C159.129 37.142 158.919 37.766 158.715 38.57C158.523 39.362 158.361 40.244 158.229 41.216C158.937 40.604 159.465 39.92 159.813 39.164C160.173 38.396 160.353 37.7 160.353 37.076C160.353 36.368 160.221 36.014 159.957 36.014ZM168.589 46.526C168.745 46.526 168.865 46.598 168.949 46.742C169.045 46.886 169.093 47.084 169.093 47.336C169.093 47.768 168.991 48.14 168.787 48.452C168.451 48.968 168.007 49.37 167.455 49.658C166.915 49.946 166.267 50.09 165.511 50.09C164.359 50.09 163.465 49.748 162.829 49.064C162.193 48.368 161.875 47.432 161.875 46.256C161.875 45.428 162.049 44.66 162.397 43.952C162.745 43.232 163.225 42.662 163.837 42.242C164.461 41.822 165.163 41.612 165.943 41.612C166.639 41.612 167.197 41.822 167.617 42.242C168.037 42.65 168.247 43.208 168.247 43.916C168.247 44.744 167.947 45.458 167.347 46.058C166.759 46.646 165.751 47.114 164.323 47.462C164.611 48.014 165.097 48.29 165.781 48.29C166.273 48.29 166.675 48.176 166.987 47.948C167.311 47.72 167.683 47.336 168.103 46.796C168.247 46.616 168.409 46.526 168.589 46.526ZM165.637 43.376C165.193 43.376 164.815 43.634 164.503 44.15C164.203 44.666 164.053 45.29 164.053 46.022V46.058C164.761 45.89 165.319 45.638 165.727 45.302C166.135 44.966 166.339 44.576 166.339 44.132C166.339 43.904 166.273 43.724 166.141 43.592C166.021 43.448 165.853 43.376 165.637 43.376ZM172.37 45.788C172.13 45.788 171.932 45.734 171.776 45.626C171.62 45.518 171.542 45.35 171.542 45.122L171.56 44.978C171.764 43.634 172.04 42.104 172.388 40.388C172.736 38.672 173.06 37.19 173.36 35.942C173.552 35.174 174.074 34.79 174.926 34.79C175.694 34.79 176.078 35.036 176.078 35.528C176.078 35.636 176.06 35.756 176.024 35.888C175.712 37.16 175.298 38.702 174.782 40.514C174.266 42.314 173.774 43.88 173.306 45.212C173.174 45.596 172.862 45.788 172.37 45.788ZM171.686 50.09C171.158 50.09 170.756 49.946 170.48 49.658C170.216 49.37 170.084 48.992 170.084 48.524C170.084 47.984 170.234 47.552 170.534 47.228C170.846 46.904 171.278 46.742 171.83 46.742C172.358 46.742 172.754 46.874 173.018 47.138C173.294 47.39 173.432 47.768 173.432 48.272C173.432 48.824 173.276 49.268 172.964 49.604C172.652 49.928 172.226 50.09 171.686 50.09Z" fill="white"/>
</svg>
