<svg width="192" height="60" viewBox="0 0 192 60" fill="none" xmlns="http://www.w3.org/2000/svg">
<path d="M13.149 20.28C14.247 20.514 15.129 21.063 15.795 21.927C16.461 22.773 16.794 23.745 16.794 24.843C16.794 26.427 16.236 27.687 15.12 28.623C14.022 29.541 12.483 30 10.503 30H1.674V11.046H10.206C12.132 11.046 13.635 11.487 14.715 12.369C15.813 13.251 16.362 14.448 16.362 15.96C16.362 17.076 16.065 18.003 15.471 18.741C14.895 19.479 14.121 19.992 13.149 20.28ZM6.291 18.714H9.315C10.071 18.714 10.647 18.552 11.043 18.228C11.457 17.886 11.664 17.391 11.664 16.743C11.664 16.095 11.457 15.6 11.043 15.258C10.647 14.916 10.071 14.745 9.315 14.745H6.291V18.714ZM9.693 26.274C10.467 26.274 11.061 26.103 11.475 25.761C11.907 25.401 12.123 24.888 12.123 24.222C12.123 23.556 11.898 23.034 11.448 22.656C11.016 22.278 10.413 22.089 9.639 22.089H6.291V26.274H9.693ZM33.6739 22.224C33.6739 22.656 33.6469 23.106 33.5929 23.574H23.1439C23.2159 24.51 23.5129 25.23 24.0349 25.734C24.5749 26.22 25.2319 26.463 26.0059 26.463C27.1579 26.463 27.9589 25.977 28.4089 25.005H33.3229C33.0709 25.995 32.6119 26.886 31.9459 27.678C31.2979 28.47 30.4789 29.091 29.4889 29.541C28.4989 29.991 27.3919 30.216 26.1679 30.216C24.6919 30.216 23.3779 29.901 22.2259 29.271C21.0739 28.641 20.1739 27.741 19.5259 26.571C18.8779 25.401 18.5539 24.033 18.5539 22.467C18.5539 20.901 18.8689 19.533 19.4989 18.363C20.1469 17.193 21.0469 16.293 22.1989 15.663C23.3509 15.033 24.6739 14.718 26.1679 14.718C27.6259 14.718 28.9219 15.024 30.0559 15.636C31.1899 16.248 32.0719 17.121 32.7019 18.255C33.3499 19.389 33.6739 20.712 33.6739 22.224ZM28.9489 21.009C28.9489 20.217 28.6789 19.587 28.1389 19.119C27.5989 18.651 26.9239 18.417 26.1139 18.417C25.3399 18.417 24.6829 18.642 24.1429 19.092C23.6209 19.542 23.2969 20.181 23.1709 21.009H28.9489ZM55.3335 14.772C57.2055 14.772 58.6905 15.339 59.7885 16.473C60.9045 17.607 61.4625 19.182 61.4625 21.198V30H56.8725V21.819C56.8725 20.847 56.6115 20.1 56.0895 19.578C55.5855 19.038 54.8835 18.768 53.9835 18.768C53.0835 18.768 52.3725 19.038 51.8505 19.578C51.3465 20.1 51.0945 20.847 51.0945 21.819V30H46.5045V21.819C46.5045 20.847 46.2435 20.1 45.7215 19.578C45.2175 19.038 44.5155 18.768 43.6155 18.768C42.7155 18.768 42.0045 19.038 41.4825 19.578C40.9785 20.1 40.7265 20.847 40.7265 21.819V30H36.1095V14.934H40.7265V16.824C41.1945 16.194 41.8065 15.699 42.5625 15.339C43.3185 14.961 44.1735 14.772 45.1275 14.772C46.2615 14.772 47.2695 15.015 48.1515 15.501C49.0515 15.987 49.7535 16.68 50.2575 17.58C50.7795 16.752 51.4905 16.077 52.3905 15.555C53.2905 15.033 54.2715 14.772 55.3335 14.772ZM69.6303 20.496C69.6303 18.624 70.0353 16.959 70.8453 15.501C71.6553 14.025 72.7803 12.882 74.2203 12.072C75.6783 11.244 77.3253 10.83 79.1613 10.83C81.4113 10.83 83.3373 11.424 84.9393 12.612C86.5413 13.8 87.6123 15.42 88.1523 17.472H83.0763C82.6983 16.68 82.1583 16.077 81.4563 15.663C80.7723 15.249 79.9893 15.042 79.1073 15.042C77.6853 15.042 76.5333 15.537 75.6513 16.527C74.7693 17.517 74.3283 18.84 74.3283 20.496C74.3283 22.152 74.7693 23.475 75.6513 24.465C76.5333 25.455 77.6853 25.95 79.1073 25.95C79.9893 25.95 80.7723 25.743 81.4563 25.329C82.1583 24.915 82.6983 24.312 83.0763 23.52H88.1523C87.6123 25.572 86.5413 27.192 84.9393 28.38C83.3373 29.55 81.4113 30.135 79.1613 30.135C77.3253 30.135 75.6783 29.73 74.2203 28.92C72.7803 28.092 71.6553 26.949 70.8453 25.491C70.0353 24.033 69.6303 22.368 69.6303 20.496ZM90.0617 22.44C90.0617 20.892 90.3497 19.533 90.9257 18.363C91.5197 17.193 92.3207 16.293 93.3287 15.663C94.3367 15.033 95.4617 14.718 96.7037 14.718C97.7657 14.718 98.6927 14.934 99.4847 15.366C100.295 15.798 100.916 16.365 101.348 17.067V14.934H105.965V30H101.348V27.867C100.898 28.569 100.268 29.136 99.4577 29.568C98.6657 30 97.7387 30.216 96.6767 30.216C95.4527 30.216 94.3367 29.901 93.3287 29.271C92.3207 28.623 91.5197 27.714 90.9257 26.544C90.3497 25.356 90.0617 23.988 90.0617 22.44ZM101.348 22.467C101.348 21.315 101.024 20.406 100.376 19.74C99.7457 19.074 98.9717 18.741 98.0537 18.741C97.1357 18.741 96.3527 19.074 95.7047 19.74C95.0747 20.388 94.7597 21.288 94.7597 22.44C94.7597 23.592 95.0747 24.51 95.7047 25.194C96.3527 25.86 97.1357 26.193 98.0537 26.193C98.9717 26.193 99.7457 25.86 100.376 25.194C101.024 24.528 101.348 23.619 101.348 22.467ZM115.434 30.216C114.12 30.216 112.95 29.991 111.924 29.541C110.898 29.091 110.088 28.479 109.494 27.705C108.9 26.913 108.567 26.031 108.495 25.059H113.058C113.112 25.581 113.355 26.004 113.787 26.328C114.219 26.652 114.75 26.814 115.38 26.814C115.956 26.814 116.397 26.706 116.703 26.49C117.027 26.256 117.189 25.959 117.189 25.599C117.189 25.167 116.964 24.852 116.514 24.654C116.064 24.438 115.335 24.204 114.327 23.952C113.247 23.7 112.347 23.439 111.627 23.169C110.907 22.881 110.286 22.44 109.764 21.846C109.242 21.234 108.981 20.415 108.981 19.389C108.981 18.525 109.215 17.742 109.683 17.04C110.169 16.32 110.871 15.753 111.789 15.339C112.725 14.925 113.832 14.718 115.11 14.718C117 14.718 118.485 15.186 119.565 16.122C120.663 17.058 121.293 18.3 121.455 19.848H117.189C117.117 19.326 116.883 18.912 116.487 18.606C116.109 18.3 115.605 18.147 114.975 18.147C114.435 18.147 114.021 18.255 113.733 18.471C113.445 18.669 113.301 18.948 113.301 19.308C113.301 19.74 113.526 20.064 113.976 20.28C114.444 20.496 115.164 20.712 116.136 20.928C117.252 21.216 118.161 21.504 118.863 21.792C119.565 22.062 120.177 22.512 120.699 23.142C121.239 23.754 121.518 24.582 121.536 25.626C121.536 26.508 121.284 27.3 120.78 28.002C120.294 28.686 119.583 29.226 118.647 29.622C117.729 30.018 116.658 30.216 115.434 30.216ZM123.443 22.44C123.443 20.892 123.731 19.533 124.307 18.363C124.901 17.193 125.702 16.293 126.71 15.663C127.718 15.033 128.843 14.718 130.085 14.718C131.147 14.718 132.074 14.934 132.866 15.366C133.676 15.798 134.297 16.365 134.729 17.067V14.934H139.346V30H134.729V27.867C134.279 28.569 133.649 29.136 132.839 29.568C132.047 30 131.12 30.216 130.058 30.216C128.834 30.216 127.718 29.901 126.71 29.271C125.702 28.623 124.901 27.714 124.307 26.544C123.731 25.356 123.443 23.988 123.443 22.44ZM134.729 22.467C134.729 21.315 134.405 20.406 133.757 19.74C133.127 19.074 132.353 18.741 131.435 18.741C130.517 18.741 129.734 19.074 129.086 19.74C128.456 20.388 128.141 21.288 128.141 22.44C128.141 23.592 128.456 24.51 129.086 25.194C129.734 25.86 130.517 26.193 131.435 26.193C132.353 26.193 133.127 25.86 133.757 25.194C134.405 24.528 134.729 23.619 134.729 22.467ZM141.768 22.44C141.768 20.892 142.056 19.533 142.632 18.363C143.226 17.193 144.027 16.293 145.035 15.663C146.043 15.033 147.168 14.718 148.41 14.718C149.4 14.718 150.3 14.925 151.11 15.339C151.938 15.753 152.586 16.311 153.054 17.013V10.02H157.671V30H153.054V27.84C152.622 28.56 152.001 29.136 151.191 29.568C150.399 30 149.472 30.216 148.41 30.216C147.168 30.216 146.043 29.901 145.035 29.271C144.027 28.623 143.226 27.714 142.632 26.544C142.056 25.356 141.768 23.988 141.768 22.44ZM153.054 22.467C153.054 21.315 152.73 20.406 152.082 19.74C151.452 19.074 150.678 18.741 149.76 18.741C148.842 18.741 148.059 19.074 147.411 19.74C146.781 20.388 146.466 21.288 146.466 22.44C146.466 23.592 146.781 24.51 147.411 25.194C148.059 25.86 148.842 26.193 149.76 26.193C150.678 26.193 151.452 25.86 152.082 25.194C152.73 24.528 153.054 23.619 153.054 22.467ZM167.869 30.216C166.393 30.216 165.061 29.901 163.873 29.271C162.703 28.641 161.776 27.741 161.092 26.571C160.426 25.401 160.093 24.033 160.093 22.467C160.093 20.919 160.435 19.56 161.119 18.39C161.803 17.202 162.739 16.293 163.927 15.663C165.115 15.033 166.447 14.718 167.923 14.718C169.399 14.718 170.731 15.033 171.919 15.663C173.107 16.293 174.043 17.202 174.727 18.39C175.411 19.56 175.753 20.919 175.753 22.467C175.753 24.015 175.402 25.383 174.7 26.571C174.016 27.741 173.071 28.641 171.865 29.271C170.677 29.901 169.345 30.216 167.869 30.216ZM167.869 26.22C168.751 26.22 169.498 25.896 170.11 25.248C170.74 24.6 171.055 23.673 171.055 22.467C171.055 21.261 170.749 20.334 170.137 19.686C169.543 19.038 168.805 18.714 167.923 18.714C167.023 18.714 166.276 19.038 165.682 19.686C165.088 20.316 164.791 21.243 164.791 22.467C164.791 23.673 165.079 24.6 165.655 25.248C166.249 25.896 166.987 26.22 167.869 26.22ZM184.331 30.216C183.017 30.216 181.847 29.991 180.821 29.541C179.795 29.091 178.985 28.479 178.391 27.705C177.797 26.913 177.464 26.031 177.392 25.059H181.955C182.009 25.581 182.252 26.004 182.684 26.328C183.116 26.652 183.647 26.814 184.277 26.814C184.853 26.814 185.294 26.706 185.6 26.49C185.924 26.256 186.086 25.959 186.086 25.599C186.086 25.167 185.861 24.852 185.411 24.654C184.961 24.438 184.232 24.204 183.224 23.952C182.144 23.7 181.244 23.439 180.524 23.169C179.804 22.881 179.183 22.44 178.661 21.846C178.139 21.234 177.878 20.415 177.878 19.389C177.878 18.525 178.112 17.742 178.58 17.04C179.066 16.32 179.768 15.753 180.686 15.339C181.622 14.925 182.729 14.718 184.007 14.718C185.897 14.718 187.382 15.186 188.462 16.122C189.56 17.058 190.19 18.3 190.352 19.848H186.086C186.014 19.326 185.78 18.912 185.384 18.606C185.006 18.3 184.502 18.147 183.872 18.147C183.332 18.147 182.918 18.255 182.63 18.471C182.342 18.669 182.198 18.948 182.198 19.308C182.198 19.74 182.423 20.064 182.873 20.28C183.341 20.496 184.061 20.712 185.033 20.928C186.149 21.216 187.058 21.504 187.76 21.792C188.462 22.062 189.074 22.512 189.596 23.142C190.136 23.754 190.415 24.582 190.433 25.626C190.433 26.508 190.181 27.3 189.677 28.002C189.191 28.686 188.48 29.226 187.544 29.622C186.626 30.018 185.555 30.216 184.331 30.216Z" fill="white"/>
<path d="M30.544 51.09C29.848 51.09 29.062 51.03 28.186 50.91C27.706 50.85 27.376 50.724 27.196 50.532C27.016 50.34 26.938 50.028 26.962 49.596C27.046 48.408 27.244 46.944 27.556 45.204C27.868 43.452 28.246 41.766 28.69 40.146C28.774 39.846 28.942 39.636 29.194 39.516C29.446 39.396 29.776 39.336 30.184 39.336C30.916 39.336 31.282 39.54 31.282 39.948C31.282 40.116 31.246 40.308 31.174 40.524C30.862 41.484 30.55 42.774 30.238 44.394C29.926 46.002 29.704 47.538 29.572 49.002C29.932 49.038 30.34 49.056 30.796 49.056C32.896 49.056 34.462 48.42 35.494 47.148C36.538 45.876 37.06 44.178 37.06 42.054C37.06 40.626 36.652 39.522 35.836 38.742C35.02 37.962 33.868 37.572 32.38 37.572C31.42 37.572 30.466 37.722 29.518 38.022C28.582 38.322 27.736 38.718 26.98 39.21C26.824 39.318 26.656 39.372 26.476 39.372C26.272 39.372 26.11 39.288 25.99 39.12C25.87 38.94 25.81 38.724 25.81 38.472C25.81 38.184 25.858 37.95 25.954 37.77C26.05 37.578 26.212 37.404 26.44 37.248C27.268 36.684 28.24 36.258 29.356 35.97C30.472 35.67 31.546 35.52 32.578 35.52C34.042 35.52 35.308 35.778 36.376 36.294C37.444 36.798 38.266 37.542 38.842 38.526C39.418 39.51 39.706 40.698 39.706 42.09C39.706 43.902 39.346 45.486 38.626 46.842C37.906 48.186 36.856 49.23 35.476 49.974C34.096 50.718 32.452 51.09 30.544 51.09ZM48.9389 46.986C49.0949 46.986 49.2149 47.058 49.2989 47.202C49.3949 47.346 49.4429 47.544 49.4429 47.796C49.4429 48.276 49.3289 48.648 49.1009 48.912C48.6569 49.452 48.0269 49.95 47.2109 50.406C46.4069 50.862 45.5429 51.09 44.6189 51.09C43.3589 51.09 42.3809 50.748 41.6849 50.064C40.9889 49.38 40.6409 48.444 40.6409 47.256C40.6409 46.428 40.8149 45.66 41.1629 44.952C41.5109 44.232 41.9909 43.662 42.6029 43.242C43.2269 42.822 43.9289 42.612 44.7089 42.612C45.4049 42.612 45.9629 42.822 46.3829 43.242C46.8029 43.65 47.0129 44.208 47.0129 44.916C47.0129 45.744 46.7129 46.458 46.1129 47.058C45.5249 47.646 44.5229 48.114 43.1069 48.462C43.4069 49.014 43.9769 49.29 44.8169 49.29C45.3569 49.29 45.9689 49.104 46.6529 48.732C47.3489 48.348 47.9489 47.85 48.4529 47.238C48.5969 47.07 48.7589 46.986 48.9389 46.986ZM44.4029 44.376C43.9589 44.376 43.5809 44.634 43.2689 45.15C42.9689 45.666 42.8189 46.29 42.8189 47.022V47.058C43.5269 46.89 44.0849 46.638 44.4929 46.302C44.9009 45.966 45.1049 45.576 45.1049 45.132C45.1049 44.904 45.0389 44.724 44.9069 44.592C44.7869 44.448 44.6189 44.376 44.4029 44.376ZM50.3353 41.424C49.8313 41.424 49.4533 41.31 49.2013 41.082C48.9493 40.842 48.8233 40.512 48.8233 40.092C48.8233 39.672 48.9853 39.324 49.3093 39.048C49.6453 38.76 50.0593 38.616 50.5513 38.616C50.9953 38.616 51.3553 38.724 51.6313 38.94C51.9073 39.156 52.0453 39.462 52.0453 39.858C52.0453 40.338 51.8893 40.722 51.5773 41.01C51.2653 41.286 50.8513 41.424 50.3353 41.424ZM50.1913 51.09C49.4113 51.09 48.8413 50.814 48.4813 50.262C48.1333 49.71 47.9593 48.978 47.9593 48.066C47.9593 47.526 48.0253 46.836 48.1573 45.996C48.3013 45.144 48.4813 44.352 48.6973 43.62C48.8053 43.236 48.9493 42.972 49.1293 42.828C49.3093 42.684 49.5973 42.612 49.9933 42.612C50.6053 42.612 50.9113 42.816 50.9113 43.224C50.9113 43.524 50.7973 44.22 50.5693 45.312C50.2813 46.632 50.1373 47.526 50.1373 47.994C50.1373 48.354 50.1853 48.63 50.2813 48.822C50.3773 49.014 50.5393 49.11 50.7673 49.11C50.9833 49.11 51.2533 48.96 51.5773 48.66C51.9013 48.36 52.3333 47.886 52.8733 47.238C53.0173 47.07 53.1793 46.986 53.3593 46.986C53.5153 46.986 53.6353 47.058 53.7193 47.202C53.8153 47.346 53.8633 47.544 53.8633 47.796C53.8633 48.276 53.7493 48.648 53.5213 48.912C52.3333 50.364 51.2233 51.09 50.1913 51.09ZM62.883 46.986C63.039 46.986 63.159 47.058 63.243 47.202C63.339 47.346 63.387 47.544 63.387 47.796C63.387 48.276 63.273 48.648 63.045 48.912C62.517 49.536 61.935 50.058 61.299 50.478C60.675 50.886 59.967 51.09 59.175 51.09C58.563 51.09 58.017 50.976 57.537 50.748C57.069 50.52 56.697 50.196 56.421 49.776C55.737 50.64 54.927 51.072 53.991 51.072C53.331 51.072 52.809 50.88 52.425 50.496C52.041 50.112 51.849 49.602 51.849 48.966C51.849 48.366 51.987 47.88 52.263 47.508C52.539 47.136 52.929 46.95 53.433 46.95C53.865 46.95 54.081 47.112 54.081 47.436C54.081 47.52 54.069 47.67 54.045 47.886C54.009 48.318 53.991 48.564 53.991 48.624C53.991 48.984 54.147 49.164 54.459 49.164C54.687 49.164 54.903 49.032 55.107 48.768C55.323 48.492 55.497 48.12 55.629 47.652C55.773 47.184 55.845 46.668 55.845 46.104C55.845 45.672 55.791 45.312 55.683 45.024C55.575 44.724 55.443 44.574 55.287 44.574C55.155 44.574 55.059 44.61 54.999 44.682C54.939 44.742 54.879 44.85 54.819 45.006C54.747 45.198 54.651 45.354 54.531 45.474C54.411 45.582 54.201 45.636 53.901 45.636C53.637 45.636 53.427 45.546 53.271 45.366C53.115 45.174 53.037 44.886 53.037 44.502C53.037 43.89 53.223 43.41 53.595 43.062C53.967 42.714 54.447 42.54 55.035 42.54C55.539 42.54 55.995 42.666 56.403 42.918C56.811 43.158 57.123 43.512 57.339 43.98C57.699 43.5 58.101 43.14 58.545 42.9C59.001 42.66 59.445 42.54 59.877 42.54C60.345 42.54 60.699 42.648 60.939 42.864C61.191 43.08 61.317 43.428 61.317 43.908C61.317 44.448 61.215 44.874 61.011 45.186C60.807 45.486 60.561 45.636 60.273 45.636C60.009 45.636 59.829 45.582 59.733 45.474C59.637 45.366 59.565 45.21 59.517 45.006C59.493 44.862 59.457 44.754 59.409 44.682C59.361 44.61 59.277 44.574 59.157 44.574C59.013 44.574 58.857 44.712 58.689 44.988C58.533 45.252 58.395 45.606 58.275 46.05C58.167 46.494 58.113 46.956 58.113 47.436C58.113 48 58.245 48.438 58.509 48.75C58.785 49.05 59.157 49.2 59.625 49.2C60.093 49.2 60.531 49.044 60.939 48.732C61.359 48.408 61.845 47.91 62.397 47.238C62.541 47.07 62.703 46.986 62.883 46.986ZM63.8285 51.09C63.1445 51.09 62.5865 50.82 62.1545 50.28C61.7345 49.74 61.5245 49.032 61.5245 48.156C61.5245 47.196 61.7465 46.29 62.1905 45.438C62.6345 44.574 63.2225 43.884 63.9545 43.368C64.6985 42.84 65.4845 42.576 66.3125 42.576C66.5765 42.576 66.7505 42.63 66.8345 42.738C66.9305 42.834 67.0085 43.014 67.0685 43.278C67.2965 43.23 67.5485 43.206 67.8245 43.206C68.1125 43.206 68.3345 43.278 68.4905 43.422C68.6465 43.566 68.7245 43.77 68.7245 44.034C68.7245 44.31 68.6645 44.79 68.5445 45.474C68.4125 46.206 68.3105 46.908 68.2385 47.58C68.1665 48.24 68.1305 48.984 68.1305 49.812C68.1305 50.268 68.0345 50.598 67.8425 50.802C67.6625 50.994 67.3625 51.09 66.9425 51.09C66.5345 51.09 66.2285 50.994 66.0245 50.802C65.8325 50.598 65.7365 50.274 65.7365 49.83L65.7545 49.542C65.3825 50.574 64.7405 51.09 63.8285 51.09ZM64.5305 49.272C64.8665 49.272 65.1725 49.038 65.4485 48.57C65.7245 48.102 65.9705 47.268 66.1865 46.068L66.5285 44.25C66.0365 44.262 65.5805 44.454 65.1605 44.826C64.7405 45.186 64.4045 45.666 64.1525 46.266C63.9005 46.866 63.7745 47.502 63.7745 48.174C63.7745 48.534 63.8405 48.81 63.9725 49.002C64.1165 49.182 64.3025 49.272 64.5305 49.272ZM78.2043 51.09C77.0283 51.09 76.1103 50.76 75.4503 50.1C74.8023 49.428 74.4783 48.546 74.4783 47.454C74.4783 46.482 74.6703 45.63 75.0543 44.898C75.4383 44.166 75.9363 43.602 76.5483 43.206C77.1603 42.81 77.8023 42.612 78.4743 42.612C79.1343 42.612 79.6443 42.81 80.0043 43.206C80.3763 43.59 80.5623 44.088 80.5623 44.7C80.5623 45.204 80.4483 45.63 80.2203 45.978C80.0043 46.326 79.7163 46.5 79.3563 46.5C79.1283 46.5 78.9423 46.446 78.7983 46.338C78.6663 46.23 78.6003 46.08 78.6003 45.888C78.6003 45.804 78.6123 45.708 78.6363 45.6C78.6603 45.492 78.6783 45.414 78.6903 45.366C78.7503 45.186 78.7803 45.018 78.7803 44.862C78.7803 44.706 78.7383 44.586 78.6543 44.502C78.5823 44.418 78.4743 44.376 78.3303 44.376C78.0543 44.376 77.7963 44.502 77.5563 44.754C77.3163 44.994 77.1243 45.324 76.9803 45.744C76.8363 46.164 76.7643 46.626 76.7643 47.13C76.7643 48.522 77.3703 49.218 78.5823 49.218C79.0743 49.218 79.6023 49.056 80.1663 48.732C80.7423 48.396 81.3063 47.898 81.8583 47.238C82.0023 47.07 82.1643 46.986 82.3443 46.986C82.5003 46.986 82.6203 47.058 82.7043 47.202C82.8003 47.346 82.8483 47.544 82.8483 47.796C82.8483 48.252 82.7343 48.624 82.5063 48.912C81.9423 49.608 81.2643 50.148 80.4723 50.532C79.6923 50.904 78.9363 51.09 78.2043 51.09ZM90.5733 45.474C90.7293 45.474 90.8493 45.552 90.9333 45.708C91.0173 45.864 91.0593 46.062 91.0593 46.302C91.0593 46.878 90.8853 47.22 90.5373 47.328C89.8173 47.58 89.0253 47.724 88.1613 47.76C87.9333 48.768 87.4833 49.578 86.8113 50.19C86.1393 50.79 85.3773 51.09 84.5253 51.09C83.8053 51.09 83.1873 50.916 82.6713 50.568C82.1673 50.22 81.7833 49.758 81.5193 49.182C81.2553 48.606 81.1233 47.982 81.1233 47.31C81.1233 46.398 81.2973 45.588 81.6453 44.88C81.9933 44.16 82.4733 43.602 83.0853 43.206C83.6973 42.798 84.3753 42.594 85.1193 42.594C86.0313 42.594 86.7633 42.912 87.3153 43.548C87.8793 44.172 88.2093 44.946 88.3053 45.87C88.8693 45.834 89.5413 45.714 90.3213 45.51C90.4173 45.486 90.5013 45.474 90.5733 45.474ZM84.6693 49.182C85.0533 49.182 85.3833 49.026 85.6593 48.714C85.9473 48.402 86.1393 47.952 86.2353 47.364C85.8633 47.112 85.5753 46.782 85.3713 46.374C85.1793 45.966 85.0833 45.534 85.0833 45.078C85.0833 44.886 85.1013 44.694 85.1373 44.502H85.0473C84.5673 44.502 84.1653 44.736 83.8413 45.204C83.5293 45.66 83.3733 46.308 83.3733 47.148C83.3733 47.808 83.4993 48.312 83.7513 48.66C84.0153 49.008 84.3213 49.182 84.6693 49.182ZM90.7924 51.09C90.3364 51.09 90.0124 50.85 89.8204 50.37C89.6404 49.89 89.5504 49.122 89.5504 48.066C89.5504 46.506 89.7724 45.024 90.2164 43.62C90.3244 43.272 90.4984 43.02 90.7384 42.864C90.9904 42.696 91.3384 42.612 91.7824 42.612C92.0224 42.612 92.1904 42.642 92.2864 42.702C92.3824 42.762 92.4304 42.876 92.4304 43.044C92.4304 43.236 92.3404 43.668 92.1604 44.34C92.0404 44.82 91.9444 45.24 91.8724 45.6C91.8004 45.948 91.7404 46.386 91.6924 46.914C92.0164 45.978 92.4004 45.186 92.8444 44.538C93.3004 43.89 93.7624 43.41 94.2304 43.098C94.7104 42.774 95.1604 42.612 95.5804 42.612C96.0004 42.612 96.2944 42.708 96.4624 42.9C96.6424 43.092 96.7324 43.386 96.7324 43.782C96.7324 44.166 96.6184 44.862 96.3904 45.87C96.2944 46.302 96.2284 46.626 96.1924 46.842C96.5884 45.834 97.0264 45.012 97.5064 44.376C97.9984 43.74 98.4784 43.29 98.9464 43.026C99.4144 42.75 99.8464 42.612 100.242 42.612C100.626 42.612 100.914 42.714 101.106 42.918C101.31 43.11 101.412 43.398 101.412 43.782C101.412 44.094 101.346 44.682 101.214 45.546C101.094 46.278 100.998 46.974 100.926 47.634C100.854 48.282 100.818 49.008 100.818 49.812C100.818 50.268 100.722 50.598 100.53 50.802C100.35 50.994 100.05 51.09 99.6304 51.09C99.2344 51.09 98.9464 50.988 98.7664 50.784C98.5864 50.58 98.4964 50.274 98.4964 49.866C98.4964 49.386 98.5804 48.594 98.7484 47.49C98.8924 46.53 98.9644 45.918 98.9644 45.654C98.9644 45.462 98.8984 45.366 98.7664 45.366C98.6104 45.366 98.3884 45.57 98.1004 45.978C97.8124 46.374 97.5244 46.902 97.2364 47.562C96.9484 48.222 96.7144 48.918 96.5344 49.65C96.4024 50.226 96.2464 50.61 96.0664 50.802C95.8984 50.994 95.6224 51.09 95.2384 51.09C94.8424 51.09 94.5424 50.904 94.3384 50.532C94.1464 50.148 94.0504 49.686 94.0504 49.146C94.0504 48.69 94.1104 48.03 94.2304 47.166C94.3264 46.398 94.3744 45.894 94.3744 45.654C94.3744 45.462 94.3084 45.366 94.1764 45.366C93.9964 45.366 93.7684 45.582 93.4924 46.014C93.2164 46.446 92.9464 46.998 92.6824 47.67C92.4304 48.342 92.2264 49.002 92.0704 49.65C91.9384 50.214 91.7824 50.598 91.6024 50.802C91.4344 50.994 91.1644 51.09 90.7924 51.09ZM109.532 51.09C108.848 51.09 108.29 50.82 107.858 50.28C107.438 49.74 107.228 49.032 107.228 48.156C107.228 47.196 107.45 46.29 107.894 45.438C108.338 44.574 108.926 43.884 109.658 43.368C110.402 42.84 111.188 42.576 112.016 42.576C112.28 42.576 112.454 42.63 112.538 42.738C112.634 42.834 112.712 43.014 112.772 43.278C113 43.23 113.252 43.206 113.528 43.206C113.816 43.206 114.038 43.278 114.194 43.422C114.35 43.566 114.428 43.77 114.428 44.034C114.428 44.31 114.368 44.79 114.248 45.474C114.116 46.206 114.014 46.908 113.942 47.58C113.87 48.24 113.834 48.984 113.834 49.812C113.834 50.268 113.738 50.598 113.546 50.802C113.366 50.994 113.066 51.09 112.646 51.09C112.238 51.09 111.932 50.994 111.728 50.802C111.536 50.598 111.44 50.274 111.44 49.83L111.458 49.542C111.086 50.574 110.444 51.09 109.532 51.09ZM110.234 49.272C110.57 49.272 110.876 49.038 111.152 48.57C111.428 48.102 111.674 47.268 111.89 46.068L112.232 44.25C111.74 44.262 111.284 44.454 110.864 44.826C110.444 45.186 110.108 45.666 109.856 46.266C109.604 46.866 109.478 47.502 109.478 48.174C109.478 48.534 109.544 48.81 109.676 49.002C109.82 49.182 110.006 49.272 110.234 49.272ZM129.685 47.022C129.841 47.022 129.961 47.1 130.045 47.256C130.141 47.4 130.189 47.586 130.189 47.814C130.189 48.09 130.147 48.306 130.063 48.462C129.979 48.618 129.847 48.756 129.667 48.876C128.635 49.572 127.879 50.088 127.399 50.424L126.247 51.198C125.791 53.682 125.191 55.632 124.447 57.048C123.715 58.476 122.779 59.19 121.639 59.19C121.027 59.19 120.529 58.998 120.145 58.614C119.761 58.242 119.569 57.75 119.569 57.138C119.569 56.286 119.905 55.368 120.577 54.384C121.249 53.412 122.509 52.212 124.357 50.784L124.465 50.082C124.261 50.406 123.991 50.658 123.655 50.838C123.331 51.006 123.007 51.09 122.683 51.09C121.939 51.09 121.345 50.82 120.901 50.28C120.457 49.74 120.235 49.032 120.235 48.156C120.235 47.196 120.457 46.29 120.901 45.438C121.345 44.574 121.933 43.884 122.665 43.368C123.409 42.84 124.195 42.576 125.023 42.576C125.287 42.576 125.461 42.63 125.545 42.738C125.641 42.834 125.719 43.014 125.779 43.278C126.007 43.23 126.271 43.206 126.571 43.206C126.871 43.206 127.081 43.254 127.201 43.35C127.333 43.434 127.399 43.608 127.399 43.872C127.399 44.016 127.393 44.13 127.381 44.214C127.333 44.586 127.183 45.528 126.931 47.04C126.883 47.328 126.829 47.646 126.769 47.994C126.721 48.33 126.667 48.69 126.607 49.074C127.531 48.354 128.419 47.718 129.271 47.166C129.427 47.07 129.565 47.022 129.685 47.022ZM123.331 49.272C123.607 49.272 123.871 49.104 124.123 48.768C124.375 48.432 124.555 47.952 124.663 47.328L125.239 44.25C124.747 44.262 124.291 44.454 123.871 44.826C123.451 45.186 123.115 45.666 122.863 46.266C122.611 46.866 122.485 47.502 122.485 48.174C122.485 48.546 122.557 48.822 122.701 49.002C122.857 49.182 123.067 49.272 123.331 49.272ZM121.837 57.444C122.137 57.444 122.473 57.084 122.845 56.364C123.229 55.644 123.595 54.498 123.943 52.926C123.019 53.718 122.353 54.432 121.945 55.068C121.537 55.704 121.333 56.262 121.333 56.742C121.333 56.946 121.369 57.114 121.441 57.246C121.525 57.378 121.657 57.444 121.837 57.444ZM137.111 46.986C137.267 46.986 137.387 47.058 137.471 47.202C137.567 47.346 137.615 47.544 137.615 47.796C137.615 48.276 137.501 48.648 137.273 48.912C136.829 49.452 136.199 49.95 135.383 50.406C134.579 50.862 133.715 51.09 132.791 51.09C131.531 51.09 130.553 50.748 129.857 50.064C129.161 49.38 128.813 48.444 128.813 47.256C128.813 46.428 128.987 45.66 129.335 44.952C129.683 44.232 130.163 43.662 130.775 43.242C131.399 42.822 132.101 42.612 132.881 42.612C133.577 42.612 134.135 42.822 134.555 43.242C134.975 43.65 135.185 44.208 135.185 44.916C135.185 45.744 134.885 46.458 134.285 47.058C133.697 47.646 132.695 48.114 131.279 48.462C131.579 49.014 132.149 49.29 132.989 49.29C133.529 49.29 134.141 49.104 134.825 48.732C135.521 48.348 136.121 47.85 136.625 47.238C136.769 47.07 136.931 46.986 137.111 46.986ZM132.575 44.376C132.131 44.376 131.753 44.634 131.441 45.15C131.141 45.666 130.991 46.29 130.991 47.022V47.058C131.699 46.89 132.257 46.638 132.665 46.302C133.073 45.966 133.277 45.576 133.277 45.132C133.277 44.904 133.211 44.724 133.079 44.592C132.959 44.448 132.791 44.376 132.575 44.376ZM137.427 51.09C136.971 51.09 136.647 50.85 136.455 50.37C136.275 49.89 136.185 49.122 136.185 48.066C136.185 46.506 136.407 45.024 136.851 43.62C136.959 43.272 137.133 43.02 137.373 42.864C137.625 42.696 137.973 42.612 138.417 42.612C138.657 42.612 138.825 42.642 138.921 42.702C139.017 42.762 139.065 42.876 139.065 43.044C139.065 43.236 138.975 43.668 138.795 44.34C138.675 44.82 138.579 45.24 138.507 45.6C138.435 45.96 138.375 46.404 138.327 46.932C138.723 45.9 139.167 45.06 139.659 44.412C140.151 43.764 140.631 43.302 141.099 43.026C141.579 42.75 142.017 42.612 142.413 42.612C143.193 42.612 143.583 43.002 143.583 43.782C143.583 44.25 143.451 45.096 143.187 46.32C142.959 47.364 142.845 48.054 142.845 48.39C142.845 48.87 143.019 49.11 143.367 49.11C143.607 49.11 143.889 48.966 144.213 48.678C144.549 48.378 144.993 47.898 145.545 47.238C145.689 47.07 145.851 46.986 146.031 46.986C146.187 46.986 146.307 47.058 146.391 47.202C146.487 47.346 146.535 47.544 146.535 47.796C146.535 48.276 146.421 48.648 146.193 48.912C145.677 49.548 145.119 50.07 144.519 50.478C143.931 50.886 143.259 51.09 142.503 51.09C141.891 51.09 141.429 50.916 141.117 50.568C140.805 50.208 140.649 49.692 140.649 49.02C140.649 48.684 140.733 48.084 140.901 47.22C141.057 46.464 141.135 45.942 141.135 45.654C141.135 45.462 141.069 45.366 140.937 45.366C140.781 45.366 140.559 45.57 140.271 45.978C139.995 46.374 139.707 46.902 139.407 47.562C139.119 48.222 138.885 48.918 138.705 49.65C138.573 50.214 138.417 50.598 138.237 50.802C138.069 50.994 137.799 51.09 137.427 51.09ZM153.107 46.986C153.263 46.986 153.383 47.058 153.467 47.202C153.563 47.346 153.611 47.544 153.611 47.796C153.611 48.276 153.497 48.648 153.269 48.912C152.753 49.548 152.189 50.07 151.577 50.478C150.965 50.886 150.263 51.09 149.471 51.09C147.023 51.09 145.799 49.368 145.799 45.924C145.799 45.396 145.817 44.862 145.853 44.322H145.151C144.791 44.322 144.545 44.256 144.413 44.124C144.293 43.992 144.233 43.782 144.233 43.494C144.233 42.822 144.503 42.486 145.043 42.486H146.069C146.273 41.166 146.585 39.96 147.005 38.868C147.425 37.776 147.929 36.906 148.517 36.258C149.117 35.61 149.759 35.286 150.443 35.286C150.947 35.286 151.343 35.508 151.631 35.952C151.919 36.396 152.063 36.954 152.063 37.626C152.063 39.486 151.283 41.106 149.723 42.486H151.739C151.931 42.486 152.069 42.528 152.153 42.612C152.237 42.696 152.279 42.852 152.279 43.08C152.279 43.908 151.601 44.322 150.245 44.322H148.049C148.025 44.922 148.013 45.39 148.013 45.726C148.013 46.974 148.157 47.85 148.445 48.354C148.745 48.858 149.213 49.11 149.849 49.11C150.365 49.11 150.821 48.954 151.217 48.642C151.613 48.33 152.081 47.862 152.621 47.238C152.765 47.07 152.927 46.986 153.107 46.986ZM149.957 37.014C149.777 37.014 149.573 37.242 149.345 37.698C149.129 38.142 148.919 38.766 148.715 39.57C148.523 40.362 148.361 41.244 148.229 42.216C148.937 41.604 149.465 40.92 149.813 40.164C150.173 39.396 150.353 38.7 150.353 38.076C150.353 37.368 150.221 37.014 149.957 37.014ZM158.589 47.526C158.745 47.526 158.865 47.598 158.949 47.742C159.045 47.886 159.093 48.084 159.093 48.336C159.093 48.768 158.991 49.14 158.787 49.452C158.451 49.968 158.007 50.37 157.455 50.658C156.915 50.946 156.267 51.09 155.511 51.09C154.359 51.09 153.465 50.748 152.829 50.064C152.193 49.368 151.875 48.432 151.875 47.256C151.875 46.428 152.049 45.66 152.397 44.952C152.745 44.232 153.225 43.662 153.837 43.242C154.461 42.822 155.163 42.612 155.943 42.612C156.639 42.612 157.197 42.822 157.617 43.242C158.037 43.65 158.247 44.208 158.247 44.916C158.247 45.744 157.947 46.458 157.347 47.058C156.759 47.646 155.751 48.114 154.323 48.462C154.611 49.014 155.097 49.29 155.781 49.29C156.273 49.29 156.675 49.176 156.987 48.948C157.311 48.72 157.683 48.336 158.103 47.796C158.247 47.616 158.409 47.526 158.589 47.526ZM155.637 44.376C155.193 44.376 154.815 44.634 154.503 45.15C154.203 45.666 154.053 46.29 154.053 47.022V47.058C154.761 46.89 155.319 46.638 155.727 46.302C156.135 45.966 156.339 45.576 156.339 45.132C156.339 44.904 156.273 44.724 156.141 44.592C156.021 44.448 155.853 44.376 155.637 44.376ZM162.37 46.788C162.13 46.788 161.932 46.734 161.776 46.626C161.62 46.518 161.542 46.35 161.542 46.122L161.56 45.978C161.764 44.634 162.04 43.104 162.388 41.388C162.736 39.672 163.06 38.19 163.36 36.942C163.552 36.174 164.074 35.79 164.926 35.79C165.694 35.79 166.078 36.036 166.078 36.528C166.078 36.636 166.06 36.756 166.024 36.888C165.712 38.16 165.298 39.702 164.782 41.514C164.266 43.314 163.774 44.88 163.306 46.212C163.174 46.596 162.862 46.788 162.37 46.788ZM161.686 51.09C161.158 51.09 160.756 50.946 160.48 50.658C160.216 50.37 160.084 49.992 160.084 49.524C160.084 48.984 160.234 48.552 160.534 48.228C160.846 47.904 161.278 47.742 161.83 47.742C162.358 47.742 162.754 47.874 163.018 48.138C163.294 48.39 163.432 48.768 163.432 49.272C163.432 49.824 163.276 50.268 162.964 50.604C162.652 50.928 162.226 51.09 161.686 51.09Z" fill="white"/>
</svg>
